<svg xmlns="http://www.w3.org/2000/svg" xmlns:xlink="http://www.w3.org/1999/xlink" width="222.684" height="51.242" viewBox="0 0 222.684 51.242">
  <defs>
    <clipPath id="clip-path">
      <rect id="Rectangle_1404" data-name="Rectangle 1404" width="222.684" height="51.242" transform="translate(38 48)" fill="#fff"/>
    </clipPath>
  </defs>
  <g id="Group_40881" data-name="Group 40881" transform="translate(-38 -48)" clip-path="url(#clip-path)">
    <path id="Path_2773" data-name="Path 2773" d="M55.175,67.48l14.3-14.337A10.464,10.464,0,0,1,84.259,67.959L69.953,82.29a6.827,6.827,0,0,1-9.67,0l-5.106-5.117a6.864,6.864,0,0,1,0-9.692" transform="translate(8.962 1.226)" fill="#38ada0"/>
    <path id="Path_2774" data-name="Path 2774" d="M43.135,59.816a10.435,10.435,0,0,1,14.781,0l14.3,14.331a6.864,6.864,0,0,1,0,9.692l-5.106,5.123a6.827,6.827,0,0,1-9.67,0l-14.3-14.337A10.484,10.484,0,0,1,43.135,59.816Z" transform="translate(1.224 5.166)" fill="#044570"/>
    <path id="Path_2775" data-name="Path 2775" d="M50.6,74.737a6.936,6.936,0,0,1-8.59-.092L46.348,79l1.678,1.683,8.269,8.283a6.827,6.827,0,0,0,9.67,0l14.3-14.337A10.464,10.464,0,0,0,65.48,59.81" transform="translate(2.367 5.163)" fill="#006fac"/>
    <path id="Path_2776" data-name="Path 2776" d="M123.341,61.471a14.428,14.428,0,0,1,4.377.579,6.089,6.089,0,0,1,2.9,1.916,8.385,8.385,0,0,1,1.6,3.6,26.778,26.778,0,0,1,.495,5.6,26.777,26.777,0,0,1-.495,5.6,8.385,8.385,0,0,1-1.6,3.6,6.089,6.089,0,0,1-2.9,1.916,14.428,14.428,0,0,1-4.377.579c-1.716,0-3.181-.028-4.59-.081s-2.741-.126-4-.215l1.718-3.171c.881.045,1.893.081,3.04.115s2.421.05,3.83.05a5.366,5.366,0,0,0,3.024-.744,4.163,4.163,0,0,0,1.568-2.575,21.8,21.8,0,0,0,.461-5.07,21.8,21.8,0,0,0-.461-5.07,4.241,4.241,0,0,0-1.568-2.592,5.274,5.274,0,0,0-3.024-.761q-2.047,0-3.649.034t-3.121.034l-1.818-3.039q1.885-.13,3.98-.215t4.608-.084Zm-4.457.3V84.555h-4.128V61.767Z" transform="translate(45.33 7.954)" fill="#006fac"/>
    <path id="Path_2777" data-name="Path 2777" d="M136.088,65.54a11.385,11.385,0,0,1,4.74.825,4.958,4.958,0,0,1,2.542,2.707,13.309,13.309,0,0,1,.778,4.986,13.19,13.19,0,0,1-.778,4.972,5.014,5.014,0,0,1-2.542,2.707,11.132,11.132,0,0,1-4.74.842,10.8,10.8,0,0,1-4.673-.842,5.1,5.1,0,0,1-2.558-2.707,12.9,12.9,0,0,1-.792-4.972,13.01,13.01,0,0,1,.792-4.986,5.016,5.016,0,0,1,2.558-2.707A11.135,11.135,0,0,1,136.088,65.54Zm0,3.039a4.656,4.656,0,0,0-2.3.478,2.708,2.708,0,0,0-1.206,1.667,11.889,11.889,0,0,0-.364,3.336,11.9,11.9,0,0,0,.364,3.336,2.664,2.664,0,0,0,1.206,1.653,4.8,4.8,0,0,0,2.3.461,5.054,5.054,0,0,0,2.346-.461A2.577,2.577,0,0,0,139.64,77.4a12.437,12.437,0,0,0,.347-3.336,12.451,12.451,0,0,0-.347-3.336,2.645,2.645,0,0,0-1.206-1.667A4.842,4.842,0,0,0,136.088,68.579Z" transform="translate(53.192 10.359)" fill="#006fac"/>
    <path id="Path_2778" data-name="Path 2778" d="M148,65.54c.552,0,1.155.022,1.818.067a16.6,16.6,0,0,1,2.014.263,8.563,8.563,0,0,1,1.848.562l-.461,2.511c-.814-.045-1.626-.078-2.427-.1s-1.5-.034-2.1-.034a6.522,6.522,0,0,0-2.659.445,2.684,2.684,0,0,0-1.4,1.586,12,12,0,0,0,0,6.375,2.751,2.751,0,0,0,1.4,1.6,6.312,6.312,0,0,0,2.659.461c.331,0,.764-.011,1.306-.034s1.125-.056,1.751-.1,1.239-.1,1.831-.165l.4,2.575a12.188,12.188,0,0,1-2.874.76,21.782,21.782,0,0,1-3.138.232,11.058,11.058,0,0,1-4.656-.825,4.974,4.974,0,0,1-2.527-2.693,13.284,13.284,0,0,1-.778-5,13.067,13.067,0,0,1,.792-5,4.968,4.968,0,0,1,2.542-2.676,11.212,11.212,0,0,1,4.656-.808Z" transform="translate(60.242 10.359)" fill="#006fac"/>
    <path id="Path_2779" data-name="Path 2779" d="M161.538,67.507v2.774H149.845V67.672l3.172-.165Zm-4.821-4.625V78.835a1.982,1.982,0,0,0,.444,1.437,2.135,2.135,0,0,0,1.535.445h2.246l.431,2.807a11.093,11.093,0,0,1-1.354.3c-.528.087-1.047.148-1.552.182s-.937.05-1.288.05a4.525,4.525,0,0,1-3.286-1.138,4.37,4.37,0,0,1-1.171-3.286V62.885h4Z" transform="translate(66.055 8.789)" fill="#006fac"/>
    <path id="Path_2780" data-name="Path 2780" d="M166.692,65.54a11.37,11.37,0,0,1,4.74.825,4.958,4.958,0,0,1,2.542,2.707,13.31,13.31,0,0,1,.778,4.986,13.19,13.19,0,0,1-.778,4.972,5.014,5.014,0,0,1-2.542,2.707,11.126,11.126,0,0,1-4.74.842,10.8,10.8,0,0,1-4.672-.842,5.1,5.1,0,0,1-2.559-2.707,12.936,12.936,0,0,1-.791-4.972,13.106,13.106,0,0,1,.791-4.986,5.018,5.018,0,0,1,2.559-2.707A11.127,11.127,0,0,1,166.692,65.54Zm0,3.039a4.656,4.656,0,0,0-2.3.478,2.714,2.714,0,0,0-1.206,1.667,11.9,11.9,0,0,0-.363,3.336,11.913,11.913,0,0,0,.363,3.336,2.67,2.67,0,0,0,1.206,1.653,4.8,4.8,0,0,0,2.3.461,5.054,5.054,0,0,0,2.346-.461,2.572,2.572,0,0,0,1.206-1.653,12.438,12.438,0,0,0,.347-3.336,12.452,12.452,0,0,0-.347-3.336,2.639,2.639,0,0,0-1.206-1.667A4.842,4.842,0,0,0,166.692,68.579Z" transform="translate(71.268 10.359)" fill="#006fac"/>
    <path id="Path_2781" data-name="Path 2781" d="M174.168,65.937l.528,3.171.364.461V82.152h-4V65.937Zm7.928-.4-.4,3.7h-1.155a8.366,8.366,0,0,0-2.609.431q-1.322.428-3.3,1.289l-.266-2.346a15.152,15.152,0,0,1,3.5-2.262,8.284,8.284,0,0,1,3.434-.808h.791Z" transform="translate(78.588 10.359)" fill="#006fac"/>
    <path id="Path_2782" data-name="Path 2782" d="M84.473,61.408q1.552,0,2.642.084c.727.056,1.4.132,2.013.232a19.1,19.1,0,0,1,1.915.414l-.363,3.07q-1.024-.067-1.916-.115c-.6-.031-1.227-.062-1.9-.081s-1.471-.034-2.394-.034a5.191,5.191,0,0,0-3.006.761,4.178,4.178,0,0,0-1.535,2.542,21.319,21.319,0,0,0-.445,4.921,21.321,21.321,0,0,0,.445,4.922,4.178,4.178,0,0,0,1.535,2.542,5.191,5.191,0,0,0,3.006.761q2.21,0,3.716-.084c1-.056,1.985-.137,2.956-.249l.363,3.039a17.667,17.667,0,0,1-3.07.66,32.946,32.946,0,0,1-3.962.2,11.311,11.311,0,0,1-5.484-1.138,6.524,6.524,0,0,1-2.956-3.716,21.413,21.413,0,0,1-.909-6.935,21.414,21.414,0,0,1,.909-6.935,6.536,6.536,0,0,1,2.956-3.716,11.273,11.273,0,0,1,5.484-1.141Z" transform="translate(21.928 7.919)" fill="#006fac"/>
    <path id="Path_2783" data-name="Path 2783" d="M90.433,61.366a1.051,1.051,0,0,1,1.188,1.189V64.4a1.051,1.051,0,0,1-1.188,1.188H88.649A1.051,1.051,0,0,1,87.46,64.4V62.555a1.051,1.051,0,0,1,1.188-1.189ZM91.523,68.4V84.618H87.561V68.4Z" transform="translate(29.211 7.894)" fill="#006fac"/>
    <path id="Path_2784" data-name="Path 2784" d="M103.678,67.507v2.774H91.987V67.672l3.171-.165Zm-4.821-4.625V78.835a1.98,1.98,0,0,0,.445,1.437,2.134,2.134,0,0,0,1.535.445h2.245l.431,2.807a11.043,11.043,0,0,1-1.353.3q-.793.13-1.552.182c-.506.034-.937.05-1.289.05a4.522,4.522,0,0,1-3.286-1.138,4.369,4.369,0,0,1-1.172-3.286V62.885h4Z" transform="translate(31.885 8.789)" fill="#006fac"/>
    <path id="Path_2785" data-name="Path 2785" d="M104.346,65.79l3.6,11.163c.11.375.21.755.3,1.141s.164.766.232,1.138h.824l-1.255,2.774h-1.058a1.345,1.345,0,0,1-.824-.266,1.291,1.291,0,0,1-.495-.727l-5.581-15.226h4.261Zm13.078,0L111.348,82.5a16.1,16.1,0,0,1-1.074,2.3,8.54,8.54,0,0,1-1.637,2.064,7.285,7.285,0,0,1-2.346,1.454,7.139,7.139,0,0,1-3.137.4l-.331-2.377a8.035,8.035,0,0,0,3.087-1.518,6.541,6.541,0,0,0,1.734-2.444l.892-2.114q.3-.726.579-1.667t.479-1.636l3.534-11.163h4.291Z" transform="translate(36.667 10.505)" fill="#006fac"/>
  </g>
</svg>
