<svg xmlns="http://www.w3.org/2000/svg" width="21.96" height="21.96" viewBox="0 0 21.96 21.96">
  <g id="Group_41435" data-name="Group 41435" transform="translate(0.125 0.125)">
    <path id="Path_2823" data-name="Path 2823" d="M7.954,6.235a.794.794,0,0,1,.525.411,4.5,4.5,0,0,0,8.016,0,.794.794,0,0,1,1.179-.276,8.751,8.751,0,0,1,3.439,8.43.794.794,0,0,1-.847.665q-.181-.014-.365-.015a4.505,4.505,0,0,0-4.408,5.416.794.794,0,0,1-.555.923,8.787,8.787,0,0,1-4.9,0,.794.794,0,0,1-.556-.923A4.505,4.505,0,0,0,5.074,15.45q-.184,0-.365.015a.794.794,0,0,1-.847-.665A8.751,8.751,0,0,1,7.3,6.369a.794.794,0,0,1,.653-.134ZM7.58,8.2a7.127,7.127,0,0,0-2.242,5.2q0,.235.015.467a6.09,6.09,0,0,1,5.81,6.083q0,.238-.018.473a7.231,7.231,0,0,0,2.684,0q-.018-.234-.018-.473a6.089,6.089,0,0,1,5.81-6.083q.015-.231.015-.467a7.127,7.127,0,0,0-2.242-5.2,6.09,6.09,0,0,1-9.813,0Z" transform="translate(-1.632 -1.487)" fill="#fff" stroke="#006fac" stroke-width="0.25" fill-rule="evenodd"/>
    <path id="Path_2824" data-name="Path 2824" d="M9.25,4.662a2.912,2.912,0,1,1,2.912,2.912A2.912,2.912,0,0,1,9.25,4.662Zm2.912-1.324a1.324,1.324,0,1,0,1.324,1.324A1.324,1.324,0,0,0,12.162,3.339Z" transform="translate(-1.307 -1.75)" fill="#fff" stroke="#006fac" stroke-width="0.25" fill-rule="evenodd"/>
    <path id="Path_2825" data-name="Path 2825" d="M1.75,19.662a2.912,2.912,0,1,1,2.912,2.912A2.912,2.912,0,0,1,1.75,19.662Zm2.912-1.324a1.324,1.324,0,1,0,1.324,1.324A1.324,1.324,0,0,0,4.662,18.339Z" transform="translate(-1.75 -0.865)" fill="#fff" stroke="#006fac" stroke-width="0.25" fill-rule="evenodd"/>
    <path id="Path_2826" data-name="Path 2826" d="M16.75,19.662a2.912,2.912,0,1,1,2.912,2.912A2.912,2.912,0,0,1,16.75,19.662Zm2.912-1.324a1.324,1.324,0,1,0,1.324,1.324A1.324,1.324,0,0,0,19.662,18.339Z" transform="translate(-0.865 -0.865)" fill="#fff" stroke="#006fac" stroke-width="0.25" fill-rule="evenodd"/>
  </g>
</svg>
