<svg xmlns="http://www.w3.org/2000/svg" width="22.52" height="22.52" viewBox="0 0 22.52 22.52">
  <g id="Group_40933" data-name="Group 40933" transform="translate(0.3 0.3)">
    <g id="Layer_1" data-name="Layer 1">
      <path id="Path_2830" data-name="Path 2830" d="M9.046,2H5.131A3.131,3.131,0,0,0,2,5.131V9.046a3.131,3.131,0,0,0,3.131,3.131H9.046a3.131,3.131,0,0,0,3.131-3.131V5.131A3.131,3.131,0,0,0,9.046,2Zm1.566,7.046a1.566,1.566,0,0,1-1.566,1.566H5.131A1.566,1.566,0,0,1,3.566,9.046V5.131A1.566,1.566,0,0,1,5.131,3.566H9.046a1.566,1.566,0,0,1,1.566,1.566ZM20.789,2H16.874a3.131,3.131,0,0,0-3.131,3.131V9.046a3.131,3.131,0,0,0,3.131,3.131h3.914A3.131,3.131,0,0,0,23.92,9.046V5.131A3.131,3.131,0,0,0,20.789,2Zm1.566,7.046a1.566,1.566,0,0,1-1.566,1.566H16.874a1.566,1.566,0,0,1-1.566-1.566V5.131a1.566,1.566,0,0,1,1.566-1.566h3.914a1.566,1.566,0,0,1,1.566,1.566Zm-13.309,4.7H5.131A3.131,3.131,0,0,0,2,16.874v3.914A3.131,3.131,0,0,0,5.131,23.92H9.046a3.131,3.131,0,0,0,3.131-3.131V16.874A3.131,3.131,0,0,0,9.046,13.743Zm1.566,7.046a1.566,1.566,0,0,1-1.566,1.566H5.131a1.566,1.566,0,0,1-1.566-1.566V16.874a1.566,1.566,0,0,1,1.566-1.566H9.046a1.566,1.566,0,0,1,1.566,1.566Z" transform="translate(-2 -2)" fill="#fff" stroke="#006fac" stroke-width="0.6"/>
    </g>
    <g id="Group_40932" data-name="Group 40932" transform="translate(12.013 11.939)">
      <g id="Group_40919" data-name="Group 40919">
        <g id="Group_40918" data-name="Group 40918">
          <path id="Path_2827" data-name="Path 2827" d="M286.959,283.774a.45.45,0,0,0-.6-.27.434.434,0,0,1-.431-.749.45.45,0,0,0,.068-.657,4.906,4.906,0,0,0-2.737-1.6.444.444,0,0,0-.356.079.451.451,0,0,0-.181.317.435.435,0,0,1-.868,0,.451.451,0,0,0-.537-.4,4.9,4.9,0,0,0-2.737,1.6.45.45,0,0,0,.068.657.434.434,0,0,1-.431.749.444.444,0,0,0-.36,0,.451.451,0,0,0-.242.267,4.612,4.612,0,0,0,0,3.163.45.45,0,0,0,.6.27.434.434,0,0,1,.431.749.45.45,0,0,0-.068.657,4.906,4.906,0,0,0,2.737,1.6.456.456,0,0,0,.356-.079.451.451,0,0,0,.181-.317.435.435,0,0,1,.868,0,.452.452,0,0,0,.448.405.5.5,0,0,0,.089-.008,4.9,4.9,0,0,0,2.737-1.6.45.45,0,0,0-.068-.657.434.434,0,0,1,.431-.749.45.45,0,0,0,.6-.27,4.6,4.6,0,0,0,0-3.163Zm-.742,2.5a1.325,1.325,0,0,0-1.176,2.032,4.006,4.006,0,0,1-1.573.927,1.331,1.331,0,0,0-2.367,0,4,4,0,0,1-1.573-.927,1.338,1.338,0,0,0,.027-1.371,1.324,1.324,0,0,0-1.2-.661,3.559,3.559,0,0,1,0-1.831,1.3,1.3,0,0,0,1.2-.661,1.334,1.334,0,0,0-.027-1.371,4,4,0,0,1,1.573-.927,1.331,1.331,0,0,0,2.367,0,4,4,0,0,1,1.573.927,1.338,1.338,0,0,0-.027,1.371,1.31,1.31,0,0,0,1.2.661,3.555,3.555,0,0,1,0,1.83Z" transform="translate(-277.331 -280.491)" fill="#fff"/>
        </g>
      </g>
      <g id="Group_40921" data-name="Group 40921" transform="translate(2.702 2.614)">
        <g id="Group_40920" data-name="Group 40920">
          <path id="Path_2828" data-name="Path 2828" d="M343.585,342.407a2.251,2.251,0,1,0,2.251,2.251A2.254,2.254,0,0,0,343.585,342.407Zm0,3.6a1.351,1.351,0,1,1,1.351-1.351A1.352,1.352,0,0,1,343.585,346.009Z" transform="translate(-341.334 -342.407)" fill="#fff" stroke="#fff" stroke-width="0.2"/>
        </g>
      </g>
    </g>
  </g>
</svg>
