<svg id="Group_40896" data-name="Group 40896" xmlns="http://www.w3.org/2000/svg" width="21.5" height="21.5" viewBox="0 0 21.5 21.5">
  <path id="Path_2803" data-name="Path 2803" d="M20,22.75H4A2.752,2.752,0,0,1,1.25,20V5.5A2.752,2.752,0,0,1,4,2.75H20A2.752,2.752,0,0,1,22.75,5.5V20A2.752,2.752,0,0,1,20,22.75ZM4,4.25A1.252,1.252,0,0,0,2.75,5.5V20A1.252,1.252,0,0,0,4,21.25H20A1.252,1.252,0,0,0,21.25,20V5.5A1.252,1.252,0,0,0,20,4.25Z" transform="translate(-1.25 -1.25)" fill="#fff"/>
  <path id="Path_2804" data-name="Path 2804" d="M10,5.75A.75.75,0,0,1,9.25,5V2a.75.75,0,1,1,1.5,0V5A.75.75,0,0,1,10,5.75Z" transform="translate(-1.25 -1.25)" fill="#fff"/>
  <path id="Path_2805" data-name="Path 2805" d="M6,5.75A.75.75,0,0,1,5.25,5V2a.75.75,0,1,1,1.5,0V5A.75.75,0,0,1,6,5.75Z" transform="translate(-1.25 -1.25)" fill="#fff"/>
  <path id="Path_2806" data-name="Path 2806" d="M18,5.75A.75.75,0,0,1,17.25,5V2a.75.75,0,1,1,1.5,0V5A.75.75,0,0,1,18,5.75Z" transform="translate(-1.25 -1.25)" fill="#fff"/>
  <path id="Path_2807" data-name="Path 2807" d="M14,5.75A.75.75,0,0,1,13.25,5V2a.75.75,0,0,1,1.5,0V5a.75.75,0,0,1-.75.75Z" transform="translate(-1.25 -1.25)" fill="#fff"/>
  <path id="Path_2808" data-name="Path 2808" d="M22,8.75H2a.75.75,0,0,1,0-1.5H22a.75.75,0,0,1,0,1.5Z" transform="translate(-1.25 -1.25)" fill="#fff"/>
  <path id="Path_2809" data-name="Path 2809" d="M11,16.75a.744.744,0,0,1-.53-.22l-2-2a.75.75,0,0,1,1.06-1.06L11,14.939l3.47-3.469a.75.75,0,0,1,1.06,1.06l-4,4a.744.744,0,0,1-.53.22Z" transform="translate(-1.25 -1.25)" fill="#fff"/>
</svg>
