<svg xmlns="http://www.w3.org/2000/svg" width="24.773" height="24" viewBox="0 0 24.773 24">
  <path id="star" d="M24.682,9.947a1.783,1.783,0,0,0-1.428-1.17l-6.446-.958L14.007,2a1.81,1.81,0,0,0-3.239,0l-2.8,5.817-6.447.958A1.78,1.78,0,0,0,.093,9.947a1.708,1.708,0,0,0,.416,1.769l4.724,4.716-1.1,6.543a1.722,1.722,0,0,0,.734,1.706,1.827,1.827,0,0,0,1.9.1l5.62-3.026,5.621,3.026a1.827,1.827,0,0,0,1.9-.1,1.723,1.723,0,0,0,.733-1.706l-1.1-6.543,4.726-4.716A1.714,1.714,0,0,0,24.682,9.947Zm-6.42,5.269a1.716,1.716,0,0,0-.485,1.5l1.1,6.543-5.621-3.024a1.829,1.829,0,0,0-1.73,0L5.9,23.257,7,16.714a1.713,1.713,0,0,0-.485-1.5L1.788,10.5l6.446-.96a1.785,1.785,0,0,0,1.349-.982l2.8-5.816,2.8,5.817a1.788,1.788,0,0,0,1.349.982l6.447.96Z" transform="translate(0 -1)" fill="#fff"/>
</svg>
