<svg xmlns="http://www.w3.org/2000/svg" width="19" height="19" viewBox="0 0 19 19">
  <path id="Union_11" data-name="Union 11" d="M15.438,19a1.122,1.122,0,0,1-1.188-1.187V7.125a1.122,1.122,0,0,1,1.188-1.187h2.375A1.121,1.121,0,0,1,19,7.125V17.813A1.122,1.122,0,0,1,17.813,19ZM8.312,19a1.121,1.121,0,0,1-1.187-1.187V1.188A1.122,1.122,0,0,1,8.312,0h2.375a1.122,1.122,0,0,1,1.187,1.188V17.813A1.121,1.121,0,0,1,10.688,19ZM1.188,19A1.122,1.122,0,0,1,0,17.813v-4.75a1.122,1.122,0,0,1,1.188-1.187H3.562A1.122,1.122,0,0,1,4.75,13.063v4.75A1.122,1.122,0,0,1,3.562,19Z" fill="#fff"/>
</svg>
