<svg xmlns="http://www.w3.org/2000/svg" width="24.6" height="24.6" viewBox="0 0 24.6 24.6">
  <g id="_20_Medical_File_Document_File_Folder" data-name="20 Medical File, Document, File, Folder" transform="translate(0.3 0.3)">
    <path id="Path_2817" data-name="Path 2817" d="M17.364,9.727h-6.1L9.411,7.862a1.091,1.091,0,0,0-.775-.316H4.273A3.273,3.273,0,0,0,1,10.818V21.727A3.273,3.273,0,0,0,4.273,25H17.364a3.273,3.273,0,0,0,3.273-3.273V13A3.273,3.273,0,0,0,17.364,9.727Zm1.091,12a1.091,1.091,0,0,1-1.091,1.091H4.273a1.091,1.091,0,0,1-1.091-1.091V10.818A1.091,1.091,0,0,1,4.273,9.727H8.189l1.855,1.865a1.091,1.091,0,0,0,.775.316h6.545A1.091,1.091,0,0,1,18.455,13ZM25,4.273V21.727A3.273,3.273,0,0,1,21.727,25V22.818a1.091,1.091,0,0,0,1.091-1.091V4.273a1.091,1.091,0,0,0-1.091-1.091H10.818A1.091,1.091,0,0,0,9.727,4.273V6.367H7.545V4.273A3.273,3.273,0,0,1,10.818,1H21.727A3.273,3.273,0,0,1,25,4.273ZM11.909,5.364h8.727V7.545H11.909Zm0,10.909h2.182v2.182H11.909v2.182H9.727V18.455H7.545V16.273H9.727V14.091h2.182Z" transform="translate(-1 -1)" fill="#fff" stroke="#006fac" stroke-width="0.6"/>
  </g>
</svg>
