<svg id="Group_40916" data-name="Group 40916" xmlns="http://www.w3.org/2000/svg" width="26.193" height="21.71" viewBox="0 0 26.193 21.71">
  <g id="Group_40911" data-name="Group 40911" transform="translate(9.639 4.035)">
    <g id="Group_40910" data-name="Group 40910" transform="translate(0 0)">
      <path id="Path_2819" data-name="Path 2819" d="M192.548,128.742H191.2a1.25,1.25,0,0,1,0-2.5h2.69a.767.767,0,0,0,0-1.535h-1.25v-1.25a.767.767,0,1,0-1.535,0v1.253a2.784,2.784,0,0,0,.095,5.567h1.345a1.25,1.25,0,1,1,0,2.5h-2.69a.767.767,0,1,0,0,1.535h1.25v1.25a.767.767,0,0,0,1.535,0v-1.253a2.785,2.785,0,0,0-.095-5.567Z" transform="translate(-188.418 -122.689)" fill="#fff"/>
    </g>
  </g>
  <g id="Group_40913" data-name="Group 40913" transform="translate(0 10.087)">
    <g id="Group_40912" data-name="Group 40912" transform="translate(0 0)">
      <path id="Path_2820" data-name="Path 2820" d="M22.651,245.1a.767.767,0,0,0-1.01.4A9.321,9.321,0,0,1,3.9,243.285l2.035,1.36a.767.767,0,1,0,.853-1.276l-3.355-2.242a.767.767,0,0,0-1.064.212L.13,244.694a.767.767,0,1,0,1.276.853l1.059-1.584a10.858,10.858,0,0,0,20.583,2.145A.767.767,0,0,0,22.651,245.1Z" transform="translate(0 -240.998)" fill="#fff"/>
    </g>
  </g>
  <g id="Group_40915" data-name="Group 40915" transform="translate(3.082 0)">
    <g id="Group_40914" data-name="Group 40914">
      <path id="Path_2821" data-name="Path 2821" d="M83.008,50.681a.767.767,0,0,0-1.064.212l-1.059,1.584A10.858,10.858,0,0,0,60.3,50.332a.767.767,0,0,0,1.406.615,9.321,9.321,0,0,1,17.738,2.208l-2.035-1.36a.767.767,0,1,0-.853,1.276l3.355,2.242a.767.767,0,0,0,1.064-.212l2.242-3.355A.768.768,0,0,0,83.008,50.681Z" transform="translate(-60.237 -43.819)" fill="#fff"/>
    </g>
  </g>
</svg>
