<svg xmlns="http://www.w3.org/2000/svg" width="20.447" height="24.119" viewBox="0 0 20.447 24.119">
  <g id="Group_40909" data-name="Group 40909" transform="translate(0.125 0.125)">
    <g id="user_people_person_users_man" data-name="user people person users man">
      <path id="Path_372" data-name="Path 372" d="M22.2,16.156a.919.919,0,0,0-1.294,1.3,8.262,8.262,0,0,1,2.451,5.876c0,1.12-3.222,2.754-8.262,2.754s-8.262-1.634-8.262-2.754a8.262,8.262,0,0,1,2.414-5.848.915.915,0,0,0-1.294-1.294A10.025,10.025,0,0,0,5,23.335c0,2.984,5.205,4.59,10.1,4.59s10.1-1.607,10.1-4.59A10.044,10.044,0,0,0,22.2,16.156Z" transform="translate(-5 -4.056)" fill="#fff" stroke="#006fac" stroke-width="0.25"/>
      <path id="Path_373" data-name="Path 373" d="M15.426,15.853A6.426,6.426,0,1,0,9,9.426,6.426,6.426,0,0,0,15.426,15.853Zm0-11.017a4.59,4.59,0,1,1-4.59,4.59A4.59,4.59,0,0,1,15.426,4.836Z" transform="translate(-5.328 -3)" fill="#fff" stroke="#006fac" stroke-width="0.25"/>
    </g>
    <path id="Path_2818" data-name="Path 2818" d="M4056.549,3114.935l-1.364,5.8,2.455,1.273,2.6-1.273-1.662-5.8Z" transform="translate(-4047.323 -3103)" fill="#fff" stroke="#006fac" stroke-width="0.25"/>
  </g>
</svg>
