<svg xmlns="http://www.w3.org/2000/svg" width="21.971" height="21.971" viewBox="0 0 21.971 21.971">
  <path id="Path_2822" data-name="Path 2822" d="M20.456,5.789l1-1a.849.849,0,0,0-.6-1.448H18.373V.849a.849.849,0,0,0-1.448-.6l-1,1a10.85,10.85,0,1,0,4.535,4.535Zm-2.93-.757h1.288L17.174,6.672H15.038V4.536L16.677,2.9V4.185A.848.848,0,0,0,17.525,5.033ZM10.854,20.014a9.158,9.158,0,1,1,3.8-17.493L13.59,3.585a.848.848,0,0,0-.248.6V7.169l-3.087,3.087a.848.848,0,1,0,1.2,1.2l3.087-3.087h2.984a.849.849,0,0,0,.6-.248l1.065-1.065a9.163,9.163,0,0,1-8.335,12.959Zm6.687-9.158a6.687,6.687,0,1,1-6.687-6.687.848.848,0,0,1,0,1.7,4.991,4.991,0,1,0,4.991,4.991.848.848,0,1,1,1.7,0Zm0,0" transform="translate(0.125 0.136)" fill="#fff" stroke="#006fac" stroke-width="0.25"/>
</svg>
