<svg xmlns="http://www.w3.org/2000/svg" width="20.558" height="24.25" viewBox="0 0 20.558 24.25">
  <path id="Order" d="M1.846,2.769a.923.923,0,0,1,.923-.923H12.923V4.615a2.769,2.769,0,0,0,2.769,2.769h2.769V21.231a.923.923,0,0,1-.923.923H2.769a.923.923,0,0,1-.923-.923ZM20.308,6.462V21.231A2.769,2.769,0,0,1,17.538,24H2.769A2.769,2.769,0,0,1,0,21.231V2.769A2.769,2.769,0,0,1,2.769,0H14a2.769,2.769,0,0,1,1.958.811L19.5,4.345A2.769,2.769,0,0,1,20.308,6.3ZM14.769,2.229l3.31,3.31H15.692a.923.923,0,0,1-.923-.923ZM5.538,10.154a.923.923,0,1,0,0,1.846h7.385a.923.923,0,1,0,0-1.846Zm0,3.692a.923.923,0,1,0,0,1.846h4.615a.923.923,0,1,0,0-1.846Zm-.923,4.615a.923.923,0,0,1,.923-.923H8.308a.923.923,0,0,1,0,1.846H5.538A.923.923,0,0,1,4.615,18.462Z" transform="translate(0.125 0.125)" fill="#fff" stroke="#006fac" stroke-width="0.25" fill-rule="evenodd"/>
</svg>
