<svg id="Group_40955" data-name="Group 40955" xmlns="http://www.w3.org/2000/svg" xmlns:xlink="http://www.w3.org/1999/xlink" width="23.157" height="21.517" viewBox="0 0 23.157 21.517">
  <defs>
    <clipPath id="clip-path">
      <rect id="Rectangle_1422" data-name="Rectangle 1422" width="23.157" height="21.517" fill="#fff" stroke="#116fac" stroke-width="0.5"/>
    </clipPath>
  </defs>
  <g id="Group_40954" data-name="Group 40954" clip-path="url(#clip-path)">
    <path id="Path_2844" data-name="Path 2844" d="M148.213,374.781a2.016,2.016,0,0,1-.441-.273.9.9,0,0,1-.251-.655c0-.546,0-1.092,0-1.638a.894.894,0,0,1,1-.992h8.386q2.819,0,5.639,0a.872.872,0,0,1,.947.761c0,.633,0,1.265,0,1.9,0,.077-.027.162.047.225v.048c-.082.026-.077.112-.113.169a.784.784,0,0,1-.605.411H148.535c-.077,0-.163-.027-.226.047Z" transform="translate(-140.384 -353.264)" fill="#fff" stroke="#116fac" stroke-width="0.5"/>
    <path id="Path_2845" data-name="Path 2845" d="M264.376,210.681c-.051.01-.048.057-.062.092a.886.886,0,0,1-.924.623h-8.145c-.273,0-.546,0-.819,0a.889.889,0,0,1-.943-.954c0-.546,0-1.092,0-1.638a.888.888,0,0,1,.942-.956q4.494-.005,8.989,0a1,1,0,0,1,.963.715Z" transform="translate(-241.218 -197.791)" fill="#fff" stroke="#116fac" stroke-width="0.5"/>
    <path id="Path_2846" data-name="Path 2846" d="M330.961,47.3c-.078.036-.064.121-.1.182a.858.858,0,0,1-.793.531q-2.853.006-5.706,0a.871.871,0,0,1-.906-.892c-.012-.577-.013-1.156,0-1.733a.884.884,0,0,1,.953-.921c1.854,0,3.708,0,5.562,0a1.007,1.007,0,0,1,.986.716Z" transform="translate(-307.804 -42.308)" fill="#fff" stroke="#116fac" stroke-width="0.5"/>
    <path id="Path_2847" data-name="Path 2847" d="M.7,374.678c-.032-.071-.109-.057-.163-.084a.848.848,0,0,1-.525-.795c0-.594-.01-1.188,0-1.782a.864.864,0,0,1,.9-.895q.879-.017,1.758,0a.88.88,0,0,1,.878.895q.008.915,0,1.83a.778.778,0,0,1-.723.782c-.6,0-1.2,0-1.8,0-.077,0-.162-.027-.225.047Z" transform="translate(-0.001 -353.161)" fill="#fff" stroke="#116fac" stroke-width="0.5"/>
    <path id="Path_2848" data-name="Path 2848" d="M9.842,13.238c0,.136-.011.274,0,.409A.878.878,0,0,1,9,14.6c-.128,0-.257,0-.386,0a.853.853,0,0,1-.965-.884,7.149,7.149,0,0,1,.341-3.037,8.971,8.971,0,0,1,4.762-5.487A11.046,11.046,0,0,1,15.175,4.5a1,1,0,0,0,.272-.087.379.379,0,0,0,.021-.666q-1.207-.813-2.416-1.622c-.432-.29-.487-.52-.208-.964.2-.312.409-.613.621-.915A.509.509,0,0,1,14.181.08c.588.329,1.125.737,1.683,1.112,1.49,1,2.974,2.013,4.461,3.021.477.323.525.575.2,1.058q-2.03,3-4.062,5.992c-.283.418-.54.471-.971.193-.29-.186-.575-.38-.858-.578a.508.508,0,0,1-.184-.765c.358-.645.8-1.239,1.193-1.86q.239-.375.489-.743a.4.4,0,0,0,.045-.47.422.422,0,0,0-.458-.178,7.1,7.1,0,0,0-5.837,5.92c-.021.151-.024.3-.035.456" transform="translate(-7.244 0)" fill="#fff" stroke="#116fac" stroke-width="0.5"/>
  </g>
</svg>
