<svg xmlns="http://www.w3.org/2000/svg" width="20.555" height="23.695" viewBox="0 0 20.555 23.695">
  <g id="Group_41114" data-name="Group 41114" transform="translate(0.75 0.75)">
    <path id="Path_2903" data-name="Path 2903" d="M12.336,9.549h5.955m0,5.549H12.336m5.955,5.549H12.336M6.382,26.2H20.673a2.6,2.6,0,0,0,2.382-2.774V6.774A2.6,2.6,0,0,0,20.673,4H6.382A2.6,2.6,0,0,0,4,6.774V23.421A2.6,2.6,0,0,0,6.382,26.2Z" transform="translate(-4 -4)" fill="none" stroke="#fff" stroke-linecap="round" stroke-linejoin="round" stroke-width="1.5"/>
    <path id="Path_2904" data-name="Path 2904" d="M8,8H8" transform="translate(-3.236 -2.451)" fill="none" stroke="#fff" stroke-linecap="round" stroke-linejoin="round" stroke-width="1.5"/>
    <path id="Path_2905" data-name="Path 2905" d="M8,12H8" transform="translate(-3.236 -0.902)" fill="none" stroke="#fff" stroke-linecap="round" stroke-linejoin="round" stroke-width="1.5"/>
    <path id="Path_2906" data-name="Path 2906" d="M8,16H8" transform="translate(-3.236 0.646)" fill="none" stroke="#fff" stroke-linecap="round" stroke-linejoin="round" stroke-width="1.5"/>
  </g>
</svg>
