<svg xmlns="http://www.w3.org/2000/svg" width="29.5" height="21.5" viewBox="0 0 29.5 21.5">
  <g id="Layer_20" data-name="Layer 20" transform="translate(0.25 0.25)">
    <path id="Path_2811" data-name="Path 2811" d="M16,22a6,6,0,1,1,6-6A6,6,0,0,1,16,22Zm0-10a4,4,0,1,0,4,4A4,4,0,0,0,16,12Z" transform="translate(-7 -10)" fill="#fff" stroke="#006fac" stroke-width="0.5"/>
    <path id="Path_2812" data-name="Path 2812" d="M21,31H11a4,4,0,0,1-4-4V24.45a1,1,0,0,1,.63-.92l3.64-1.46A1,1,0,1,1,12,23.93l-3,1.2V27a2,2,0,0,0,2,2H21a2,2,0,0,0,2-2V25.13l-3-1.2a1,1,0,1,1,.74-1.86l3.64,1.46a1,1,0,0,1,.63.92V27A4,4,0,0,1,21,31Z" transform="translate(-7 -10)" fill="#fff" stroke="#006fac" stroke-width="0.5"/>
    <path id="Path_2815" data-name="Path 2815" d="M23,11a5,5,0,1,1,5-5A5,5,0,0,1,23,11Zm0-8a3,3,0,1,0,3,3A3,3,0,0,0,23,3Z" transform="translate(-2 1.61)" fill="#fff" stroke="#006fac" stroke-width="0.5"/>
    <path id="Path_2816" data-name="Path 2816" d="M27,19.39H24a1,1,0,0,1,0-2h3a2,2,0,0,0,2-2V14.32l-2.55-1a1,1,0,0,1,.73-1.87l3.19,1.25a1,1,0,0,1,.63.93v1.75a4,4,0,0,1-4,4.01Z" transform="translate(-2 1.61)" fill="#fff" stroke="#006fac" stroke-width="0.5"/>
  </g>
</svg>
