<svg xmlns="http://www.w3.org/2000/svg" width="21.169" height="21.169" viewBox="0 0 21.169 21.169">
  <g id="Group_40930" data-name="Group 40930" transform="translate(0.1 0.1)">
    <g id="Group_40934" data-name="Group 40934" transform="translate(10.484 10.672)">
      <g id="Group_40919" data-name="Group 40919">
        <g id="Group_40918" data-name="Group 40918">
          <path id="Path_2827" data-name="Path 2827" d="M287.521,283.966a.476.476,0,0,0-.638-.286.459.459,0,0,1-.457-.793.476.476,0,0,0,.071-.7,5.192,5.192,0,0,0-2.9-1.691.47.47,0,0,0-.376.084.477.477,0,0,0-.192.336.46.46,0,0,1-.919,0,.477.477,0,0,0-.568-.419,5.184,5.184,0,0,0-2.9,1.691.477.477,0,0,0,.071.7.459.459,0,0,1-.457.793.47.47,0,0,0-.381,0,.477.477,0,0,0-.256.282,4.881,4.881,0,0,0,0,3.347.476.476,0,0,0,.638.286.459.459,0,0,1,.457.793.477.477,0,0,0-.072.7,5.193,5.193,0,0,0,2.9,1.691.483.483,0,0,0,.377-.084.477.477,0,0,0,.192-.335.46.46,0,0,1,.919,0,.478.478,0,0,0,.475.429.532.532,0,0,0,.094-.009,5.185,5.185,0,0,0,2.9-1.691.477.477,0,0,0-.072-.7.459.459,0,0,1,.457-.793.476.476,0,0,0,.638-.286,4.873,4.873,0,0,0,0-3.347Zm-.785,2.643a1.4,1.4,0,0,0-1.245,2.15,4.239,4.239,0,0,1-1.665.981,1.409,1.409,0,0,0-2.5,0,4.238,4.238,0,0,1-1.665-.981,1.416,1.416,0,0,0,.029-1.451,1.4,1.4,0,0,0-1.273-.7,3.768,3.768,0,0,1,0-1.938,1.371,1.371,0,0,0,1.273-.7,1.412,1.412,0,0,0-.029-1.451,4.239,4.239,0,0,1,1.665-.981,1.409,1.409,0,0,0,2.5,0,4.238,4.238,0,0,1,1.665.981,1.416,1.416,0,0,0-.029,1.451,1.386,1.386,0,0,0,1.273.7,3.762,3.762,0,0,1,0,1.937Z" transform="translate(-277.331 -280.491)" fill="#fff"/>
        </g>
      </g>
      <g id="Group_40921" data-name="Group 40921" transform="translate(2.86 2.766)">
        <g id="Group_40920" data-name="Group 40920">
          <path id="Path_2828" data-name="Path 2828" d="M343.717,342.407a2.383,2.383,0,1,0,2.383,2.383A2.386,2.386,0,0,0,343.717,342.407Zm0,3.813a1.43,1.43,0,1,1,1.43-1.43A1.431,1.431,0,0,1,343.717,346.22Z" transform="translate(-341.334 -342.407)" fill="#fff"/>
        </g>
      </g>
    </g>
    <g id="Group_40923" data-name="Group 40923" transform="translate(0 0)">
      <g id="Group_40922" data-name="Group 40922">
        <path id="Path_2829" data-name="Path 2829" d="M18.586,1.073H2.383A2.386,2.386,0,0,0,0,3.456v16.2a2.386,2.386,0,0,0,2.383,2.383h8.578a.477.477,0,0,0,0-.953H2.383a1.431,1.431,0,0,1-1.43-1.43V5.839H20.016v6.672a.477.477,0,1,0,.953,0V3.456A2.386,2.386,0,0,0,18.586,1.073Zm1.43,3.813H.953V3.456a1.431,1.431,0,0,1,1.43-1.43h16.2a1.431,1.431,0,0,1,1.43,1.43Z" transform="translate(0 -1.073)" fill="#fff" stroke="#fff" stroke-width="0.2"/>
      </g>
    </g>
    <g id="Group_40925" data-name="Group 40925" transform="translate(1.906 1.906)">
      <g id="Group_40924" data-name="Group 40924">
        <circle id="Ellipse_435" data-name="Ellipse 435" cx="0.477" cy="0.477" r="0.477" fill="#fff" stroke="#fff" stroke-width="0.2"/>
      </g>
    </g>
    <g id="Group_40927" data-name="Group 40927" transform="translate(3.812 1.906)">
      <g id="Group_40926" data-name="Group 40926">
        <circle id="Ellipse_436" data-name="Ellipse 436" cx="0.477" cy="0.477" r="0.477" fill="#fff" stroke="#fff" stroke-width="0.2"/>
      </g>
    </g>
    <g id="Group_40929" data-name="Group 40929" transform="translate(5.719 1.906)">
      <g id="Group_40928" data-name="Group 40928">
        <circle id="Ellipse_437" data-name="Ellipse 437" cx="0.477" cy="0.477" r="0.477" fill="#fff" stroke="#fff" stroke-width="0.2"/>
      </g>
    </g>
  </g>
</svg>
