<svg xmlns="http://www.w3.org/2000/svg" width="20.047" height="25.059" viewBox="0 0 20.047 25.059">
  <path id="Path_2891" data-name="Path 2891" d="M16.53,17.035H11.518a1.253,1.253,0,0,0,0,2.506H16.53a1.253,1.253,0,0,0,0-2.506Zm7.518-6.34a1.641,1.641,0,0,0-.075-.338v-.113a1.341,1.341,0,0,0-.238-.351h0L16.216,2.376h0a1.341,1.341,0,0,0-.351-.238h-.113A1.1,1.1,0,0,0,15.339,2H7.759A3.759,3.759,0,0,0,4,5.759V23.3a3.759,3.759,0,0,0,3.759,3.759h12.53A3.759,3.759,0,0,0,24.047,23.3V10.7ZM16.53,6.273l3.245,3.245H17.782A1.253,1.253,0,0,1,16.53,8.265ZM21.541,23.3a1.253,1.253,0,0,1-1.253,1.253H7.759A1.253,1.253,0,0,1,6.506,23.3V5.759A1.253,1.253,0,0,1,7.759,4.506h6.265V8.265a3.759,3.759,0,0,0,3.759,3.759h3.759Z" transform="translate(-4 -2)" fill="#209ee3"/>
</svg>
