<svg xmlns="http://www.w3.org/2000/svg" width="17.755" height="17.755" viewBox="0 0 17.755 17.755">
  <path id="Path_3041" data-name="Path 3041" d="M16.667,3.725H14.941V2.863a.863.863,0,1,0-1.725,0v.863H8.039V2.863a.863.863,0,1,0-1.725,0v.863H4.588A2.588,2.588,0,0,0,2,6.314V16.667a2.588,2.588,0,0,0,2.588,2.588H16.667a2.588,2.588,0,0,0,2.588-2.588V6.314A2.588,2.588,0,0,0,16.667,3.725Zm.863,12.941a.863.863,0,0,1-.863.863H4.588a.863.863,0,0,1-.863-.863V10.627h13.8Zm0-7.765H3.725V6.314a.863.863,0,0,1,.863-.863H6.314v.863a.863.863,0,1,0,1.725,0V5.451h5.176v.863a.863.863,0,1,0,1.725,0V5.451h1.725a.863.863,0,0,1,.863.863Z" transform="translate(-1.75 -1.75)" fill="#858688" stroke="#fff" stroke-width="0.5"/>
</svg>
