<svg xmlns="http://www.w3.org/2000/svg" width="98.166" height="107.09" viewBox="0 0 98.166 107.09">
  <path id="Path_35394" data-name="Path 35394" d="M227.7,170.39v40.159a2.148,2.148,0,0,1-2.231,2.231H221a2.148,2.148,0,0,1-2.231-2.231V170.39A2.148,2.148,0,0,1,221,168.159h4.462a2.148,2.148,0,0,1,2.231,2.231Zm17.848,0v40.159a2.148,2.148,0,0,1-2.231,2.231h-4.462a2.148,2.148,0,0,1-2.231-2.231V170.39a2.148,2.148,0,0,1,2.231-2.231h4.462a2.148,2.148,0,0,1,2.231,2.231Zm17.848,0v40.159a2.148,2.148,0,0,1-2.231,2.231H256.7a2.148,2.148,0,0,1-2.231-2.231V170.39a2.148,2.148,0,0,1,2.231-2.231h4.462a2.148,2.148,0,0,1,2.231,2.231Zm8.924,50.477V154.772H209.848v66.095a7.918,7.918,0,0,0,.488,2.824,6.254,6.254,0,0,0,1.011,1.882q.523.593.732.593h58.007q.209,0,.732-.593a6.254,6.254,0,0,0,1.011-1.882A7.918,7.918,0,0,0,272.317,220.867Zm-46.852-75.019H256.7l-3.347-8.157a1.968,1.968,0,0,0-1.185-.767h-22.1a1.968,1.968,0,0,0-1.185.767Zm64.7,2.231v4.462a2.148,2.148,0,0,1-2.231,2.231h-6.693v66.095a15.827,15.827,0,0,1-3.277,10q-3.277,4.218-7.878,4.218H212.079a9.817,9.817,0,0,1-7.878-4.079,15.255,15.255,0,0,1-3.277-9.865V154.772h-6.693A2.148,2.148,0,0,1,192,152.541v-4.462a2.148,2.148,0,0,1,2.231-2.231h21.543l4.88-11.643a9.66,9.66,0,0,1,3.765-4.392A9.842,9.842,0,0,1,229.928,128h22.31a9.842,9.842,0,0,1,5.508,1.813,9.66,9.66,0,0,1,3.765,4.392l4.88,11.643h21.543a2.148,2.148,0,0,1,2.231,2.231Z" transform="translate(-192 -128)" fill="#ff1d1c"/>
</svg>
