<svg xmlns="http://www.w3.org/2000/svg" width="16.078" height="23.016" viewBox="0 0 16.078 23.016">
  <g id="Group_41125" data-name="Group 41125" transform="translate(-41.4 -26.9)">
    <path id="Path_2919" data-name="Path 2919" d="M57.865,27.283A7.969,7.969,0,0,0,49.3,29.771l3.8,3.182Z" transform="translate(-6.01 0)" fill="#1a73e8"/>
    <path id="Path_2920" data-name="Path 2920" d="M43.29,38.9a8.015,8.015,0,0,0-1.89,5.168,9.318,9.318,0,0,0,.79,3.828l4.881-5.79Z" transform="translate(0 -9.129)" fill="#ea4335"/>
    <path id="Path_2921" data-name="Path 2921" d="M67.545,32.994a3.053,3.053,0,0,1,3.062,3.062,3.014,3.014,0,0,1-.718,1.986s2.416-2.895,4.785-5.694A8.074,8.074,0,0,0,69.985,28.4L65.2,34.094a3.014,3.014,0,0,1,2.345-1.1" transform="translate(-18.106 -1.141)" fill="#4285f4"/>
    <path id="Path_2922" data-name="Path 2922" d="M52.025,57.324a3.053,3.053,0,0,1-3.062-3.062,3,3,0,0,1,.718-1.962L44.8,58.09a27.054,27.054,0,0,0,3.637,5.192l5.933-7.058a3.051,3.051,0,0,1-2.345,1.1" transform="translate(-2.587 -19.323)" fill="#fbbc04"/>
    <path id="Path_2923" data-name="Path 2923" d="M65.814,59.666c2.68-4.187,5.814-6.1,5.814-10.958A8.093,8.093,0,0,0,70.718,45L60,57.728c.455.6.909,1.22,1.364,1.938,1.627,2.512,1.172,4.019,2.225,4.019s.6-1.507,2.225-4.019" transform="translate(-14.15 -13.77)" fill="#34a853"/>
  </g>
</svg>
