<svg xmlns="http://www.w3.org/2000/svg" width="28" height="28" viewBox="0 0 28 28">
  <g id="Group_40998" data-name="Group 40998" transform="translate(0 -0.101)">
    <g id="Group_41304" data-name="Group 41304" transform="translate(0 0.101)">
      <rect id="Rectangle_1509" data-name="Rectangle 1509" width="28" height="28" rx="14" fill="#1389e9"/>
      <path id="WhatsApp-Logo" d="M19.245,14.9c-.331-.171-1.958-1-2.261-1.109s-.524-.171-.745.171-.855,1.109-1.048,1.337-.386.256-.717.085a8.983,8.983,0,0,1-2.661-1.692,10.238,10.238,0,0,1-1.841-2.362.505.505,0,0,1,.145-.7c.149-.153.331-.4.5-.6a2.339,2.339,0,0,0,.331-.569.644.644,0,0,0-.028-.6c-.083-.171-.745-1.849-1.02-2.532-.269-.665-.541-.575-.745-.585s-.414-.012-.634-.012a1.2,1.2,0,0,0-.883.427A3.874,3.874,0,0,0,6.476,9.008a6.737,6.737,0,0,0,1.351,3.527,14.938,14.938,0,0,0,5.654,5.149,18.643,18.643,0,0,0,1.887.718,4.407,4.407,0,0,0,2.084.135,3.411,3.411,0,0,0,2.234-1.621,2.932,2.932,0,0,0,.193-1.622c-.083-.142-.3-.228-.634-.4" transform="translate(1.113 1.753)" fill="#fff" fill-rule="evenodd"/>
    </g>
  </g>
</svg>
