<svg id="Group_41141" data-name="Group 41141" xmlns="http://www.w3.org/2000/svg" width="12.037" height="15" viewBox="0 0 12.037 15">
  <path id="Path_2927" data-name="Path 2927" d="M96.109,160.908l.068.077,5.116,5.755a.961.961,0,0,0,.722.316.975.975,0,0,0,.722-.316L107.849,161l.087-.1a.559.559,0,0,0,.1-.32.6.6,0,0,0-.624-.581H96.624a.6.6,0,0,0-.624.581A.553.553,0,0,0,96.109,160.908Z" transform="translate(-96 -152.057)" fill="#fff"/>
  <path id="Path_2928" data-name="Path 2928" d="M.109.908.177.986,5.293,6.741a.961.961,0,0,0,.722.316.975.975,0,0,0,.722-.316L11.849,1l.087-.1a.559.559,0,0,0,.1-.32A.6.6,0,0,0,11.413,0H.624A.6.6,0,0,0,0,.581.553.553,0,0,0,.109.908Z" transform="translate(12.037 7.057) rotate(180)" fill="#fff"/>
</svg>
