<svg xmlns="http://www.w3.org/2000/svg" width="77.659" height="70.551" viewBox="0 0 77.659 70.551">
  <path id="Path_3003" data-name="Path 3003" d="M39.821,39.343,54.788,54.307,49.8,59.3,43.348,52.85v19.7H36.293V52.843L29.845,59.3l-4.991-4.991ZM39.821,2a24.7,24.7,0,0,1,24.53,21.848,19.4,19.4,0,0,1-3.362,38.042v-7.1a12.345,12.345,0,1,0-3.923-24.377,17.638,17.638,0,1,0-34.489,0A12.347,12.347,0,0,0,18.02,54.68l.635.106v7.1A19.4,19.4,0,0,1,15.29,23.85,24.693,24.693,0,0,1,39.821,2Z" transform="translate(-0.993 -2)" fill="#209ee3"/>
</svg>
