<svg xmlns="http://www.w3.org/2000/svg" width="28" height="28" viewBox="0 0 28 28">
  <g id="Group_40999" data-name="Group 40999" transform="translate(0 0)">
    <rect id="Rectangle_1510" data-name="Rectangle 1510" width="28" height="28" rx="14" transform="translate(0 0)" fill="#31b86a"/>
    <path id="WhatsApp-Logo" d="M11.387,8.184c-.194-.1-1.15-.568-1.328-.633s-.308-.1-.437.1-.5.633-.615.763-.227.146-.421.049a5.3,5.3,0,0,1-1.563-.965A5.861,5.861,0,0,1,5.943,6.147c-.113-.195-.012-.3.085-.4s.194-.227.291-.341a1.326,1.326,0,0,0,.194-.324A.358.358,0,0,0,6.5,4.744c-.049-.1-.437-1.055-.6-1.444s-.318-.328-.437-.334-.243-.007-.372-.007a.714.714,0,0,0-.518.243,2.183,2.183,0,0,0-.68,1.623,3.785,3.785,0,0,0,.793,2.012A8.665,8.665,0,0,0,8,9.774a11.147,11.147,0,0,0,1.108.41,2.66,2.66,0,0,0,1.224.077,2,2,0,0,0,1.312-.925,1.628,1.628,0,0,0,.113-.925c-.049-.081-.178-.13-.372-.227M7.842,13.03h0a6.449,6.449,0,0,1-3.29-.9l-.236-.14-2.446.642.653-2.388L2.367,10A6.462,6.462,0,1,1,7.842,13.03m5.5-11.977a7.722,7.722,0,0,0-5.5-2.283A7.79,7.79,0,0,0,1.1,10.446L0,14.479,4.123,13.4a7.763,7.763,0,0,0,3.716.947h0a7.789,7.789,0,0,0,5.5-13.292" transform="translate(6.192 7.375)" fill="#fff" fill-rule="evenodd"/>
  </g>
</svg>
