<svg xmlns="http://www.w3.org/2000/svg" width="25" height="25" viewBox="0 0 25 25">
  <g id="Group_40998" data-name="Group 40998" transform="translate(0.001)">
    <rect id="Rectangle_1509" data-name="Rectangle 1509" width="25" height="25" rx="4" transform="translate(-0.001)" fill="#1389e9"/>
    <path id="WhatsApp-Logo" d="M23.074,17.292c-.43-.215-2.545-1.256-2.94-1.4s-.681-.215-.968.215-1.111,1.4-1.362,1.687-.5.323-.932.108a11.745,11.745,0,0,1-3.459-2.135,12.965,12.965,0,0,1-2.393-2.98c-.251-.431-.027-.663.189-.878.194-.193.43-.5.645-.754a2.931,2.931,0,0,0,.43-.718.792.792,0,0,0-.036-.754c-.107-.215-.968-2.333-1.326-3.194-.349-.839-.7-.725-.968-.738s-.538-.015-.824-.015a1.581,1.581,0,0,0-1.147.538A4.825,4.825,0,0,0,6.476,9.863a8.368,8.368,0,0,0,1.757,4.45c.215.287,3.033,4.632,7.349,6.5a24.7,24.7,0,0,0,2.452.906,5.9,5.9,0,0,0,2.71.17,4.43,4.43,0,0,0,2.9-2.045,3.6,3.6,0,0,0,.251-2.046c-.108-.179-.394-.287-.824-.5" transform="translate(-2.109 -1.043)" fill="#fff" fill-rule="evenodd"/>
  </g>
</svg>
