<svg xmlns="http://www.w3.org/2000/svg" width="25" height="25" viewBox="0 0 25 25">
  <g id="Group_40999" data-name="Group 40999" transform="translate(0)">
    <rect id="Rectangle_1510" data-name="Rectangle 1510" width="25" height="25" rx="4" transform="translate(0)" fill="#31b86a"/>
    <path id="WhatsApp-Logo" d="M13.468,9.893c-.23-.115-1.36-.671-1.57-.748s-.364-.115-.517.115-.594.748-.728.9-.268.173-.5.058A6.274,6.274,0,0,1,8.307,9.078,6.926,6.926,0,0,1,7.028,7.486c-.134-.23-.014-.354.1-.469s.23-.268.345-.4a1.566,1.566,0,0,0,.23-.383.423.423,0,0,0-.019-.4c-.057-.115-.517-1.246-.709-1.706s-.376-.387-.517-.394-.287-.008-.44-.008a.844.844,0,0,0-.613.288,2.578,2.578,0,0,0-.8,1.917A4.47,4.47,0,0,0,5.54,8.3a10.244,10.244,0,0,0,3.926,3.47,13.193,13.193,0,0,0,1.31.484,3.149,3.149,0,0,0,1.447.091,2.367,2.367,0,0,0,1.551-1.093,1.922,1.922,0,0,0,.134-1.093c-.057-.1-.211-.153-.44-.268M9.275,15.618h0a7.633,7.633,0,0,1-3.891-1.066L5.1,14.387l-2.893.759.772-2.821L2.8,12.035a7.644,7.644,0,1,1,6.476,3.582M15.781,1.467A9.2,9.2,0,0,0,1.3,12.565L0,17.331l4.876-1.279a9.189,9.189,0,0,0,4.4,1.119h0a9.2,9.2,0,0,0,6.506-15.7" transform="translate(4.377 4.723)" fill="#fff" stroke="#fff" stroke-width="0.5" fill-rule="evenodd"/>
  </g>
</svg>
