<svg xmlns="http://www.w3.org/2000/svg" width="25" height="25" viewBox="0 0 25 25">
  <g id="Group_41102" data-name="Group 41102" transform="translate(0)">
    <g id="Group_41000" data-name="Group 41000">
      <rect id="Rectangle_1511" data-name="Rectangle 1511" width="25" height="25" rx="4" transform="translate(0)" fill="#e94235"/>
    </g>
    <g id="Group_41435" data-name="Group 41435" transform="translate(0 0)">
      <g id="Group_41083" data-name="Group 41083" transform="translate(5.762 5.883)">
        <path id="Path_2878" data-name="Path 2878" d="M8.028,4H3.34A1.328,1.328,0,0,0,2,5.315v9.208a1.328,1.328,0,0,0,1.34,1.315h9.377a1.328,1.328,0,0,0,1.34-1.315v-4.6" transform="translate(-2 -2.605)" fill="none" stroke="#fff" stroke-linecap="round" stroke-linejoin="round" stroke-width="1.75"/>
        <path id="Path_2879" data-name="Path 2879" d="M15.033,2.287a1.439,1.439,0,0,1,2.009,0,1.377,1.377,0,0,1,0,1.973l-6.363,6.248L8,11.166l.67-2.631Z" transform="translate(-3.981 -1.879)" fill="none" stroke="#fff" stroke-linecap="round" stroke-linejoin="round" stroke-width="1.75"/>
      </g>
    </g>
  </g>
</svg>
