<svg xmlns="http://www.w3.org/2000/svg" width="20" height="20" viewBox="0 0 20 20">
  <g id="Group_41440" data-name="Group 41440" transform="translate(-1136.805 -1490.172)">
    <g id="Group_41439" data-name="Group 41439">
      <g id="Group_41438" data-name="Group 41438">
        <g id="Group_41437" data-name="Group 41437">
          <g id="Group_41303" data-name="Group 41303" transform="translate(2.805 737.172)">
            <g id="Group_41300" data-name="Group 41300" transform="translate(20)">
              <g id="Group_41102" data-name="Group 41102" transform="translate(1114.223 753.444)">
                <g id="Group_41000" data-name="Group 41000" transform="translate(0 0)">
                  <g id="Group_41436" data-name="Group 41436">
                    <rect id="Rectangle_1511" data-name="Rectangle 1511" width="20" height="20" rx="4" transform="translate(-0.223 -0.444)" fill="#ba63c6"/>
                  </g>
                </g>
              </g>
            </g>
            <g id="Group_41302" data-name="Group 41302" transform="translate(1132.26 752.462)">
              <path id="Path_3033" data-name="Path 3033" d="M14.9,12.766l-3.159,3.159L8.577,12.766a4.457,4.457,0,0,1,0-6.308h0a4.477,4.477,0,0,1,6.323,0h0a4.457,4.457,0,0,1,0,6.308Z" fill="none" stroke="#fff" stroke-linecap="round" stroke-linejoin="round" stroke-width="1"/>
              <path id="Path_3034" data-name="Path 3034" d="M16.263,20.7,13.1,23.369,9.94,20.7" transform="translate(-1.363 -7.934)" fill="none" stroke="#fff" stroke-linecap="round" stroke-linejoin="round" stroke-width="1"/>
              <ellipse id="Ellipse_448" data-name="Ellipse 448" cx="2.077" cy="2.072" rx="2.077" ry="2.072" transform="translate(9.665 7.496)" fill="none" stroke="#fff" stroke-linecap="round" stroke-linejoin="round" stroke-width="1"/>
            </g>
          </g>
        </g>
      </g>
    </g>
  </g>
</svg>
