<svg xmlns="http://www.w3.org/2000/svg" width="54.987" height="44.833" viewBox="0 0 54.987 44.833">
  <g id="Group_41433" data-name="Group 41433" transform="translate(10904.388 2655.698)">
    <path id="Path_3079" data-name="Path 3079" d="M55.175,67.48l14.3-14.337A10.464,10.464,0,0,1,84.259,67.959L69.953,82.29a6.827,6.827,0,0,1-9.67,0l-5.106-5.117a6.864,6.864,0,0,1,0-9.692" transform="translate(-10936.722 -2705.774)" fill="#38ada0"/>
    <path id="Path_3080" data-name="Path 3080" d="M43.135,59.816a10.435,10.435,0,0,1,14.781,0l14.3,14.331a6.864,6.864,0,0,1,0,9.692l-5.106,5.123a6.827,6.827,0,0,1-9.67,0l-14.3-14.337A10.484,10.484,0,0,1,43.135,59.816Z" transform="translate(-10944.46 -2701.834)" fill="#044570"/>
    <path id="Path_3081" data-name="Path 3081" d="M50.6,74.737a6.936,6.936,0,0,1-8.59-.092L46.348,79l1.678,1.683,8.269,8.283a6.827,6.827,0,0,0,9.67,0l14.3-14.337A10.464,10.464,0,0,0,65.48,59.81" transform="translate(-10943.316 -2701.837)" fill="#006fac"/>
  </g>
</svg>
